<mxfile host="app.diagrams.net" modified="2023-10-05T08:01:27.763Z" agent="Mozilla/5.0 (Macintosh; Intel Mac OS X 10_15_7) AppleWebKit/537.36 (KHTML, like Gecko) Chrome/117.0.0.0 Safari/537.36" etag="JtH_uhqehE-Q4f1GcVRX" version="21.8.0" type="device">
  <diagram name="Page-1" id="1TP3HBh3Tu_Q6kS2aCYd">
    <mxGraphModel dx="1364" dy="735" grid="1" gridSize="10" guides="1" tooltips="1" connect="1" arrows="1" fold="1" page="1" pageScale="1" pageWidth="850" pageHeight="1100" math="0" shadow="0">
      <root>
        <mxCell id="0" />
        <mxCell id="1" parent="0" />
        <mxCell id="iqlhZ6bKpt9djLsvO4Z5-159" value="" style="rounded=0;whiteSpace=wrap;html=1;" vertex="1" parent="1">
          <mxGeometry x="70" y="10" width="800" height="2060" as="geometry" />
        </mxCell>
        <mxCell id="iqlhZ6bKpt9djLsvO4Z5-93" value="&lt;b&gt;&lt;font style=&quot;font-size: 24px;&quot;&gt;Website Title&lt;/font&gt;&lt;/b&gt;" style="text;html=1;strokeColor=none;fillColor=none;align=center;verticalAlign=middle;whiteSpace=wrap;rounded=0;" vertex="1" parent="1">
          <mxGeometry x="170" y="80" width="550" height="60" as="geometry" />
        </mxCell>
        <mxCell id="iqlhZ6bKpt9djLsvO4Z5-94" value="About" style="text;html=1;strokeColor=none;fillColor=none;align=center;verticalAlign=middle;whiteSpace=wrap;rounded=0;" vertex="1" parent="1">
          <mxGeometry x="185" y="150" width="60" height="30" as="geometry" />
        </mxCell>
        <mxCell id="iqlhZ6bKpt9djLsvO4Z5-95" value="My Hobbies" style="text;html=1;strokeColor=none;fillColor=none;align=center;verticalAlign=middle;whiteSpace=wrap;rounded=0;" vertex="1" parent="1">
          <mxGeometry x="405" y="150" width="90" height="30" as="geometry" />
        </mxCell>
        <mxCell id="iqlhZ6bKpt9djLsvO4Z5-96" value="Research Papers" style="text;html=1;strokeColor=none;fillColor=none;align=center;verticalAlign=middle;whiteSpace=wrap;rounded=0;" vertex="1" parent="1">
          <mxGeometry x="275" y="150" width="120" height="30" as="geometry" />
        </mxCell>
        <mxCell id="iqlhZ6bKpt9djLsvO4Z5-97" value="Image Collection" style="text;html=1;strokeColor=none;fillColor=none;align=center;verticalAlign=middle;whiteSpace=wrap;rounded=0;" vertex="1" parent="1">
          <mxGeometry x="515" y="155" width="100" height="20" as="geometry" />
        </mxCell>
        <mxCell id="iqlhZ6bKpt9djLsvO4Z5-98" value="My Blog" style="text;html=1;strokeColor=none;fillColor=none;align=center;verticalAlign=middle;whiteSpace=wrap;rounded=0;" vertex="1" parent="1">
          <mxGeometry x="635" y="150" width="60" height="30" as="geometry" />
        </mxCell>
        <mxCell id="iqlhZ6bKpt9djLsvO4Z5-99" value="" style="ellipse;whiteSpace=wrap;html=1;" vertex="1" parent="1">
          <mxGeometry x="230" y="240" width="410" height="220" as="geometry" />
        </mxCell>
        <mxCell id="iqlhZ6bKpt9djLsvO4Z5-100" value="Profile Picture" style="text;html=1;strokeColor=none;fillColor=none;align=center;verticalAlign=middle;whiteSpace=wrap;rounded=0;" vertex="1" parent="1">
          <mxGeometry x="362.5" y="335" width="110" height="30" as="geometry" />
        </mxCell>
        <mxCell id="iqlhZ6bKpt9djLsvO4Z5-101" value="&lt;h1&gt;About&lt;/h1&gt;&lt;p&gt;Lorem ipsum dolor sit amet, consectetur adipisicing elit, sed do eiusmod tempor incididunt ut labore et dolore magna aliqua.&lt;/p&gt;Lorem ipsum dolor sit amet, consectetur adipisicing elit, sed do eiusmod tempor incididunt ut labore et dolore magna aliqua." style="text;html=1;strokeColor=none;fillColor=none;spacing=5;spacingTop=-20;whiteSpace=wrap;overflow=hidden;rounded=0;" vertex="1" parent="1">
          <mxGeometry x="120" y="520" width="640" height="170" as="geometry" />
        </mxCell>
        <mxCell id="iqlhZ6bKpt9djLsvO4Z5-102" value="&lt;h1&gt;Published Papers&lt;/h1&gt;&lt;p&gt;&lt;br&gt;&lt;/p&gt;" style="text;html=1;strokeColor=none;fillColor=none;spacing=5;spacingTop=-20;whiteSpace=wrap;overflow=hidden;rounded=0;" vertex="1" parent="1">
          <mxGeometry x="110" y="680" width="220" height="50" as="geometry" />
        </mxCell>
        <mxCell id="iqlhZ6bKpt9djLsvO4Z5-103" value="" style="rounded=0;whiteSpace=wrap;html=1;" vertex="1" parent="1">
          <mxGeometry x="130" y="730" width="610" height="110" as="geometry" />
        </mxCell>
        <mxCell id="iqlhZ6bKpt9djLsvO4Z5-104" value="" style="rounded=0;whiteSpace=wrap;html=1;" vertex="1" parent="1">
          <mxGeometry x="160" y="750" width="120" height="60" as="geometry" />
        </mxCell>
        <mxCell id="iqlhZ6bKpt9djLsvO4Z5-105" value="&lt;h1&gt;Paper Title&lt;/h1&gt;&lt;p&gt;Lorem ipsum dolor sit amet, consectetur adipisicing elit, sed do eiusmod tempor incididunt ut labore et dolore magna aliqua.&lt;/p&gt;" style="text;html=1;strokeColor=none;fillColor=none;spacing=5;spacingTop=-20;whiteSpace=wrap;overflow=hidden;rounded=0;" vertex="1" parent="1">
          <mxGeometry x="300" y="740" width="420" height="80" as="geometry" />
        </mxCell>
        <mxCell id="iqlhZ6bKpt9djLsvO4Z5-106" value="Image" style="text;html=1;strokeColor=none;fillColor=none;align=center;verticalAlign=middle;whiteSpace=wrap;rounded=0;" vertex="1" parent="1">
          <mxGeometry x="190" y="765" width="60" height="30" as="geometry" />
        </mxCell>
        <mxCell id="iqlhZ6bKpt9djLsvO4Z5-107" value="" style="rounded=0;whiteSpace=wrap;html=1;" vertex="1" parent="1">
          <mxGeometry x="125" y="870" width="610" height="110" as="geometry" />
        </mxCell>
        <mxCell id="iqlhZ6bKpt9djLsvO4Z5-108" value="" style="rounded=0;whiteSpace=wrap;html=1;" vertex="1" parent="1">
          <mxGeometry x="155" y="890" width="120" height="60" as="geometry" />
        </mxCell>
        <mxCell id="iqlhZ6bKpt9djLsvO4Z5-109" value="&lt;h1&gt;Paper Title&lt;/h1&gt;&lt;p&gt;Lorem ipsum dolor sit amet, consectetur adipisicing elit, sed do eiusmod tempor incididunt ut labore et dolore magna aliqua.&lt;/p&gt;" style="text;html=1;strokeColor=none;fillColor=none;spacing=5;spacingTop=-20;whiteSpace=wrap;overflow=hidden;rounded=0;" vertex="1" parent="1">
          <mxGeometry x="295" y="880" width="420" height="80" as="geometry" />
        </mxCell>
        <mxCell id="iqlhZ6bKpt9djLsvO4Z5-110" value="Image" style="text;html=1;strokeColor=none;fillColor=none;align=center;verticalAlign=middle;whiteSpace=wrap;rounded=0;" vertex="1" parent="1">
          <mxGeometry x="185" y="905" width="60" height="30" as="geometry" />
        </mxCell>
        <mxCell id="iqlhZ6bKpt9djLsvO4Z5-111" value="" style="rounded=0;whiteSpace=wrap;html=1;" vertex="1" parent="1">
          <mxGeometry x="125" y="1000" width="610" height="110" as="geometry" />
        </mxCell>
        <mxCell id="iqlhZ6bKpt9djLsvO4Z5-112" value="" style="rounded=0;whiteSpace=wrap;html=1;" vertex="1" parent="1">
          <mxGeometry x="155" y="1020" width="120" height="60" as="geometry" />
        </mxCell>
        <mxCell id="iqlhZ6bKpt9djLsvO4Z5-113" value="&lt;h1&gt;Paper Title&lt;/h1&gt;&lt;p&gt;Lorem ipsum dolor sit amet, consectetur adipisicing elit, sed do eiusmod tempor incididunt ut labore et dolore magna aliqua.&lt;/p&gt;" style="text;html=1;strokeColor=none;fillColor=none;spacing=5;spacingTop=-20;whiteSpace=wrap;overflow=hidden;rounded=0;" vertex="1" parent="1">
          <mxGeometry x="295" y="1010" width="420" height="80" as="geometry" />
        </mxCell>
        <mxCell id="iqlhZ6bKpt9djLsvO4Z5-114" value="Image" style="text;html=1;strokeColor=none;fillColor=none;align=center;verticalAlign=middle;whiteSpace=wrap;rounded=0;" vertex="1" parent="1">
          <mxGeometry x="185" y="1035" width="60" height="30" as="geometry" />
        </mxCell>
        <mxCell id="iqlhZ6bKpt9djLsvO4Z5-115" value="&lt;h1&gt;&lt;span style=&quot;background-color: initial;&quot;&gt;My Hobbies&lt;/span&gt;&lt;/h1&gt;&lt;h1&gt;&lt;br&gt;&lt;/h1&gt;" style="text;html=1;strokeColor=none;fillColor=none;spacing=5;spacingTop=-20;whiteSpace=wrap;overflow=hidden;rounded=0;" vertex="1" parent="1">
          <mxGeometry x="115" y="1150" width="205" height="40" as="geometry" />
        </mxCell>
        <mxCell id="iqlhZ6bKpt9djLsvO4Z5-116" value="Hobbie 1" style="rounded=1;whiteSpace=wrap;html=1;" vertex="1" parent="1">
          <mxGeometry x="140" y="1210" width="170" height="80" as="geometry" />
        </mxCell>
        <mxCell id="iqlhZ6bKpt9djLsvO4Z5-117" value="Hobbie 2" style="rounded=1;whiteSpace=wrap;html=1;" vertex="1" parent="1">
          <mxGeometry x="320" y="1210" width="190" height="80" as="geometry" />
        </mxCell>
        <mxCell id="iqlhZ6bKpt9djLsvO4Z5-118" value="Hobbie 3" style="rounded=1;whiteSpace=wrap;html=1;" vertex="1" parent="1">
          <mxGeometry x="530" y="1210" width="190" height="80" as="geometry" />
        </mxCell>
        <mxCell id="iqlhZ6bKpt9djLsvO4Z5-119" value="&lt;h1&gt;Image Collection&lt;/h1&gt;&lt;p&gt;&lt;br&gt;&lt;/p&gt;" style="text;html=1;strokeColor=none;fillColor=none;spacing=5;spacingTop=-20;whiteSpace=wrap;overflow=hidden;rounded=0;" vertex="1" parent="1">
          <mxGeometry x="115" y="1350" width="245" height="50" as="geometry" />
        </mxCell>
        <mxCell id="iqlhZ6bKpt9djLsvO4Z5-120" value="" style="rounded=0;whiteSpace=wrap;html=1;direction=south;" vertex="1" parent="1">
          <mxGeometry x="155" y="1400" width="115" height="200" as="geometry" />
        </mxCell>
        <mxCell id="iqlhZ6bKpt9djLsvO4Z5-121" value="Image" style="text;html=1;strokeColor=none;fillColor=none;align=center;verticalAlign=middle;whiteSpace=wrap;rounded=0;" vertex="1" parent="1">
          <mxGeometry x="180" y="1470" width="60" height="30" as="geometry" />
        </mxCell>
        <mxCell id="iqlhZ6bKpt9djLsvO4Z5-122" value="info" style="text;html=1;strokeColor=none;fillColor=none;align=center;verticalAlign=middle;whiteSpace=wrap;rounded=0;" vertex="1" parent="1">
          <mxGeometry x="157.5" y="1570" width="60" height="30" as="geometry" />
        </mxCell>
        <mxCell id="iqlhZ6bKpt9djLsvO4Z5-123" value="" style="rounded=0;whiteSpace=wrap;html=1;" vertex="1" parent="1">
          <mxGeometry x="155" y="1570" width="115" height="30" as="geometry" />
        </mxCell>
        <mxCell id="iqlhZ6bKpt9djLsvO4Z5-124" value="info" style="text;html=1;strokeColor=none;fillColor=none;align=center;verticalAlign=middle;whiteSpace=wrap;rounded=0;" vertex="1" parent="1">
          <mxGeometry x="180" y="1570" width="60" height="30" as="geometry" />
        </mxCell>
        <mxCell id="iqlhZ6bKpt9djLsvO4Z5-125" value="" style="rounded=0;whiteSpace=wrap;html=1;direction=south;" vertex="1" parent="1">
          <mxGeometry x="310" y="1400" width="115" height="200" as="geometry" />
        </mxCell>
        <mxCell id="iqlhZ6bKpt9djLsvO4Z5-126" value="Image" style="text;html=1;strokeColor=none;fillColor=none;align=center;verticalAlign=middle;whiteSpace=wrap;rounded=0;" vertex="1" parent="1">
          <mxGeometry x="337.5" y="1470" width="60" height="30" as="geometry" />
        </mxCell>
        <mxCell id="iqlhZ6bKpt9djLsvO4Z5-127" value="info" style="text;html=1;strokeColor=none;fillColor=none;align=center;verticalAlign=middle;whiteSpace=wrap;rounded=0;" vertex="1" parent="1">
          <mxGeometry x="297.5" y="1570" width="60" height="30" as="geometry" />
        </mxCell>
        <mxCell id="iqlhZ6bKpt9djLsvO4Z5-128" value="" style="rounded=0;whiteSpace=wrap;html=1;" vertex="1" parent="1">
          <mxGeometry x="310" y="1570" width="115" height="30" as="geometry" />
        </mxCell>
        <mxCell id="iqlhZ6bKpt9djLsvO4Z5-129" value="info" style="text;html=1;strokeColor=none;fillColor=none;align=center;verticalAlign=middle;whiteSpace=wrap;rounded=0;" vertex="1" parent="1">
          <mxGeometry x="337.5" y="1570" width="60" height="30" as="geometry" />
        </mxCell>
        <mxCell id="iqlhZ6bKpt9djLsvO4Z5-130" value="" style="rounded=0;whiteSpace=wrap;html=1;direction=south;" vertex="1" parent="1">
          <mxGeometry x="470" y="1400" width="115" height="200" as="geometry" />
        </mxCell>
        <mxCell id="iqlhZ6bKpt9djLsvO4Z5-131" value="Image" style="text;html=1;strokeColor=none;fillColor=none;align=center;verticalAlign=middle;whiteSpace=wrap;rounded=0;" vertex="1" parent="1">
          <mxGeometry x="497.5" y="1470" width="60" height="30" as="geometry" />
        </mxCell>
        <mxCell id="iqlhZ6bKpt9djLsvO4Z5-132" value="" style="rounded=0;whiteSpace=wrap;html=1;" vertex="1" parent="1">
          <mxGeometry x="470" y="1570" width="115" height="30" as="geometry" />
        </mxCell>
        <mxCell id="iqlhZ6bKpt9djLsvO4Z5-133" value="info" style="text;html=1;strokeColor=none;fillColor=none;align=center;verticalAlign=middle;whiteSpace=wrap;rounded=0;" vertex="1" parent="1">
          <mxGeometry x="490" y="1570" width="60" height="30" as="geometry" />
        </mxCell>
        <mxCell id="iqlhZ6bKpt9djLsvO4Z5-134" value="" style="rounded=0;whiteSpace=wrap;html=1;direction=south;" vertex="1" parent="1">
          <mxGeometry x="620" y="1400" width="115" height="200" as="geometry" />
        </mxCell>
        <mxCell id="iqlhZ6bKpt9djLsvO4Z5-135" value="Image" style="text;html=1;strokeColor=none;fillColor=none;align=center;verticalAlign=middle;whiteSpace=wrap;rounded=0;" vertex="1" parent="1">
          <mxGeometry x="650" y="1470" width="60" height="30" as="geometry" />
        </mxCell>
        <mxCell id="iqlhZ6bKpt9djLsvO4Z5-136" value="info" style="text;html=1;strokeColor=none;fillColor=none;align=center;verticalAlign=middle;whiteSpace=wrap;rounded=0;" vertex="1" parent="1">
          <mxGeometry x="647.5" y="1570" width="60" height="30" as="geometry" />
        </mxCell>
        <mxCell id="iqlhZ6bKpt9djLsvO4Z5-137" value="" style="rounded=0;whiteSpace=wrap;html=1;" vertex="1" parent="1">
          <mxGeometry x="620" y="1570" width="115" height="30" as="geometry" />
        </mxCell>
        <mxCell id="iqlhZ6bKpt9djLsvO4Z5-138" value="info" style="text;html=1;strokeColor=none;fillColor=none;align=center;verticalAlign=middle;whiteSpace=wrap;rounded=0;" vertex="1" parent="1">
          <mxGeometry x="650" y="1570" width="60" height="30" as="geometry" />
        </mxCell>
        <mxCell id="iqlhZ6bKpt9djLsvO4Z5-139" value="" style="rounded=0;whiteSpace=wrap;html=1;direction=south;" vertex="1" parent="1">
          <mxGeometry x="155" y="1640" width="115" height="200" as="geometry" />
        </mxCell>
        <mxCell id="iqlhZ6bKpt9djLsvO4Z5-140" value="Image" style="text;html=1;strokeColor=none;fillColor=none;align=center;verticalAlign=middle;whiteSpace=wrap;rounded=0;" vertex="1" parent="1">
          <mxGeometry x="180" y="1710" width="60" height="30" as="geometry" />
        </mxCell>
        <mxCell id="iqlhZ6bKpt9djLsvO4Z5-141" value="info" style="text;html=1;strokeColor=none;fillColor=none;align=center;verticalAlign=middle;whiteSpace=wrap;rounded=0;" vertex="1" parent="1">
          <mxGeometry x="157.5" y="1810" width="60" height="30" as="geometry" />
        </mxCell>
        <mxCell id="iqlhZ6bKpt9djLsvO4Z5-142" value="" style="rounded=0;whiteSpace=wrap;html=1;" vertex="1" parent="1">
          <mxGeometry x="155" y="1810" width="115" height="30" as="geometry" />
        </mxCell>
        <mxCell id="iqlhZ6bKpt9djLsvO4Z5-143" value="info" style="text;html=1;strokeColor=none;fillColor=none;align=center;verticalAlign=middle;whiteSpace=wrap;rounded=0;" vertex="1" parent="1">
          <mxGeometry x="180" y="1810" width="60" height="30" as="geometry" />
        </mxCell>
        <mxCell id="iqlhZ6bKpt9djLsvO4Z5-144" value="" style="rounded=0;whiteSpace=wrap;html=1;direction=south;" vertex="1" parent="1">
          <mxGeometry x="310" y="1640" width="115" height="200" as="geometry" />
        </mxCell>
        <mxCell id="iqlhZ6bKpt9djLsvO4Z5-145" value="Image" style="text;html=1;strokeColor=none;fillColor=none;align=center;verticalAlign=middle;whiteSpace=wrap;rounded=0;" vertex="1" parent="1">
          <mxGeometry x="337.5" y="1710" width="60" height="30" as="geometry" />
        </mxCell>
        <mxCell id="iqlhZ6bKpt9djLsvO4Z5-146" value="info" style="text;html=1;strokeColor=none;fillColor=none;align=center;verticalAlign=middle;whiteSpace=wrap;rounded=0;" vertex="1" parent="1">
          <mxGeometry x="297.5" y="1810" width="60" height="30" as="geometry" />
        </mxCell>
        <mxCell id="iqlhZ6bKpt9djLsvO4Z5-147" value="" style="rounded=0;whiteSpace=wrap;html=1;" vertex="1" parent="1">
          <mxGeometry x="310" y="1810" width="115" height="30" as="geometry" />
        </mxCell>
        <mxCell id="iqlhZ6bKpt9djLsvO4Z5-148" value="info" style="text;html=1;strokeColor=none;fillColor=none;align=center;verticalAlign=middle;whiteSpace=wrap;rounded=0;" vertex="1" parent="1">
          <mxGeometry x="337.5" y="1810" width="60" height="30" as="geometry" />
        </mxCell>
        <mxCell id="iqlhZ6bKpt9djLsvO4Z5-149" value="" style="rounded=0;whiteSpace=wrap;html=1;direction=south;" vertex="1" parent="1">
          <mxGeometry x="470" y="1640" width="115" height="200" as="geometry" />
        </mxCell>
        <mxCell id="iqlhZ6bKpt9djLsvO4Z5-150" value="Image" style="text;html=1;strokeColor=none;fillColor=none;align=center;verticalAlign=middle;whiteSpace=wrap;rounded=0;" vertex="1" parent="1">
          <mxGeometry x="497.5" y="1710" width="60" height="30" as="geometry" />
        </mxCell>
        <mxCell id="iqlhZ6bKpt9djLsvO4Z5-151" value="" style="rounded=0;whiteSpace=wrap;html=1;" vertex="1" parent="1">
          <mxGeometry x="470" y="1810" width="115" height="30" as="geometry" />
        </mxCell>
        <mxCell id="iqlhZ6bKpt9djLsvO4Z5-152" value="info" style="text;html=1;strokeColor=none;fillColor=none;align=center;verticalAlign=middle;whiteSpace=wrap;rounded=0;" vertex="1" parent="1">
          <mxGeometry x="490" y="1810" width="60" height="30" as="geometry" />
        </mxCell>
        <mxCell id="iqlhZ6bKpt9djLsvO4Z5-153" value="" style="rounded=0;whiteSpace=wrap;html=1;direction=south;" vertex="1" parent="1">
          <mxGeometry x="620" y="1640" width="115" height="200" as="geometry" />
        </mxCell>
        <mxCell id="iqlhZ6bKpt9djLsvO4Z5-154" value="Image" style="text;html=1;strokeColor=none;fillColor=none;align=center;verticalAlign=middle;whiteSpace=wrap;rounded=0;" vertex="1" parent="1">
          <mxGeometry x="650" y="1710" width="60" height="30" as="geometry" />
        </mxCell>
        <mxCell id="iqlhZ6bKpt9djLsvO4Z5-155" value="info" style="text;html=1;strokeColor=none;fillColor=none;align=center;verticalAlign=middle;whiteSpace=wrap;rounded=0;" vertex="1" parent="1">
          <mxGeometry x="647.5" y="1810" width="60" height="30" as="geometry" />
        </mxCell>
        <mxCell id="iqlhZ6bKpt9djLsvO4Z5-156" value="" style="rounded=0;whiteSpace=wrap;html=1;" vertex="1" parent="1">
          <mxGeometry x="620" y="1810" width="115" height="30" as="geometry" />
        </mxCell>
        <mxCell id="iqlhZ6bKpt9djLsvO4Z5-157" value="info" style="text;html=1;strokeColor=none;fillColor=none;align=center;verticalAlign=middle;whiteSpace=wrap;rounded=0;" vertex="1" parent="1">
          <mxGeometry x="650" y="1810" width="60" height="30" as="geometry" />
        </mxCell>
        <mxCell id="iqlhZ6bKpt9djLsvO4Z5-158" value="&lt;h1&gt;My Blog&lt;/h1&gt;&lt;p&gt;Lorem ipsum dolor sit amet, consectetur adipisicing elit, sed do eiusmod tempor incididunt ut labore et dolore magna aliqua.&lt;/p&gt;&lt;p&gt;Lorem ipsum dolor sit amet, consectetur adipisicing elit, sed do eiusmod tempor incididunt ut labore et dolore magna aliqua.&lt;br&gt;&lt;/p&gt;" style="text;html=1;strokeColor=none;fillColor=none;spacing=5;spacingTop=-20;whiteSpace=wrap;overflow=hidden;rounded=0;" vertex="1" parent="1">
          <mxGeometry x="122.5" y="1900" width="617.5" height="130" as="geometry" />
        </mxCell>
      </root>
    </mxGraphModel>
  </diagram>
</mxfile>
